/* XPM */
static char *tux4[] = {
/* width height num_colors chars_per_pixel */
"    84   100       65            2",
/* colors */
".. c    none",
".# c #d8d8d8",
".a c #787878",
".b c #686868",
".c c #404040",
".d c #888888",
".e c #b8b8b8",
".f c #c8c8c8",
".g c #484848",
".h c #080000",
".i c #000000",
".j c #383030",
".k c #202020",
".l c #808080",
".m c #181818",
".n c #606060",
".o c #e8e8e8",
".p c #181800",
".q c #585858",
".r c #e0e0e0",
".s c #282820",
".t c #a8a8a0",
".u c #c0c0c0",
".v c #f8f8f8",
".w c #d8dcd8",
".x c #a89870",
".y c #b8bcb8",
".z c #484858",
".A c #302000",
".B c #604000",
".C c #684818",
".D c #b88c20",
".E c #f8b800",
".F c #f8b808",
".G c #e0b800",
".H c #d09000",
".I c #b08000",
".J c #d0bc78",
".K c #885c00",
".L c #c88800",
".M c #e8cc00",
".N c #d8a000",
".O c #d8a808",
".P c #e0a800",
".Q c #402800",
".R c #e0e8e0",
".S c #e8d008",
".T c #f8d020",
".U c #d8b048",
".V c #e0b820",
".W c #201800",
".X c #986800",
".Y c #b88000",
".Z c #785000",
".0 c #e8b808",
".1 c #d89800",
".2 c #906c18",
".3 c #a8ac98",
".4 c #404048",
".5 c #e0dcc8",
".6 c #806848",
".7 c #e8a800",
".8 c #d0c8b0",
".9 c #403828",
"#. c #686878",
/* pixels */
"........................................................................................................................................................................",
"........................................................................................................................................................................",
"........................................................................................................................................................................",
"........................................................................................................................................................................",
"........................................................................................................................................................................",
"........................................................................................................................................................................",
"........................................................................................................................................................................",
"...........................................................................#.a.b.b.c.c.b.b.d.e..........................................................................",
".......................................................................f.g.h.i.i.i.i.i.i.i.i.i.j.e......................................................................",
".....................................................................d.i.i.i.i.i.i.i.i.i.i.i.i.i.i.k.e..................................................................",
"...................................................................b.i.i.i.i.i.i.i.i.i.i.i.i.i.h.i.i.i.l................................................................",
".................................................................e.i.i.i.i.i.i.i.i.i.i.i.i.i.m.c.c.m.i.i.n..............................................................",
"...............................................................o.m.i.i.i.i.i.i.i.i.i.i.i.i.i.k.n.b.g.p.i.i.d............................................................",
"...............................................................a.i.i.i.i.i.i.i.i.i.i.i.i.i.i.k.b.b.c.k.i.i.i.#..........................................................",
".............................................................o.k.i.i.i.i.i.i.i.i.i.i.i.i.i.h.k.c.k.m.h.i.i.i.g..........................................................",
".............................................................e.i.i.i.i.i.i.i.i.i.i.i.i.i.i.i.h.h.i.i.i.i.i.i.i.f........................................................",
".............................................................d.i.i.i.i.i.i.i.i.i.i.i.i.i.i.i.i.i.i.i.i.i.i.i.i.q........................................................",
".............................................................b.i.i.i.i.i.i.i.i.i.i.i.i.i.i.i.i.i.i.i.i.i.i.i.i.m.o......................................................",
".............................................................k.i.i.i.i.h.h.i.i.i.i.i.i.i.i.i.i.m.m.i.i.i.i.i.i.i.r......................................................",
".............................................................k.i.i.i.i.i.k.m.i.i.i.h.i.i.i.m.k.i.k.s.i.i.i.i.i.i.t......................................................",
".............................................................k.i.i.k.n.g.i.k.i.i.i.i.i.k.b.d.t.d.m.k.h.i.i.i.i.i.b......................................................",
".............................................................k.i.m.l.u.u.n.i.i.i.i.i.k.d.e.u.#.#.l.i.i.i.i.i.i.i.d......................................................",
".............................................................k.i.g.f.o.v.r.g.i.i.i.i.l.w.v.o.r.v.f.c.i.i.i.i.i.i.b......................................................",
".............................................................k.i.x.r.a.t.v.e.i.i.i.k.#.v.y.s.g.e.v.y.i.i.i.i.i.i.q......................................................",
".............................................................s.i.#.g.i.s.d.v.s.i.m.j.r.v.k.i.g.j.e.v.s.i.i.i.i.i.q......................................................",
".............................................................c.i.f.c.i.j.a.v.s.i.m.s.#.u.i.i.h.h.x.v.s.i.i.i.i.i.n......................................................",
".............................................................d.i.u.g.i.i.z.x.A.B.B.A.l.f.i.i.i.i.x.v.j.i.i.i.i.i.q......................................................",
".............................................................d.i.t.x.i.i.C.D.E.F.G.H.I.J.s.i.i.k.#.v.k.i.i.i.i.i.n......................................................",
".............................................................d.i.b.v.b.K.L.H.M.M.N.D.O.M.P.B.Q.e.v.x.i.i.i.i.i.i.k.R....................................................",
".............................................................d.i.i.t.D.L.G.F.G.M.S.T.T.U.S.S.T.V.D.Q.i.i.i.i.i.i.k.#....................................................",
".............................................................d.i.W.X.Y.N.P.G.G.M.T.T.U.T.S.S.S.M.T.O.A.i.i.i.i.i.m.#....................................................",
".............................................................e.i.Z.Y.H.P.G.0.M.S.T.U.T.S.S.S.S.P.D.F.A.i.i.i.i.i.i.e....................................................",
".............................................................e.h.X.L.1.P.0.G.M.S.U.T.S.S.S.M.I.I.1.N.W.i.i.i.i.i.i.l....................................................",
".............................................................e.i.B.I.N.G.E.S.S.S.T.S.M.S.P.I.L.1.1.L.p.i.i.k.i.i.i.h.r..................................................",
".............................................................e.i.i.B.X.N.G.T.T.S.S.G.I.X.I.H.P.H.D.C.i.i.h.b.n.k.i.i.e..................................................",
".............................................................e.i.i.d.2.K.X.D.I.X.X.2.I.L.H.L.D.J.e.u.s.i.i.j.d.l.m.i.g..................................................",
".............................................................e.i.h.t.t.2.K.H.P.H.H.L.L.L.Y.x.e.u.f.u.z.i.i.i.b.d.j.i.i.e................................................",
".............................................................d.i.m.3.u.x.2.X.Y.Y.Y.I.X.D.J.e.e.f.r.o.d.i.i.i.k.c.i.i.i.k................................................",
"...........................................................#.i.i.i.3.u.y.t.2.2.2.2.2.D.3.y.e.#.v.v.v.v.4.i.i.i.i.i.i.i.i.3..............................................",
"...........................................................b.i.i.g.o.#.e.y.y.e.x.3.e.y.e.e.#.v.v.v.v.v.t.i.i.i.i.i.i.i.i.m.r............................................",
".........................................................t.i.i.k.#.v.v.u.e.y.e.u.y.e.u.#.r.v.v.v.v.v.v.v.b.i.i.i.i.i.i.i.i.b............................................",
".......................................................#.h.i.i.x.v.v.v.r.e.e.e.e.e.u.#.v.v.v.v.v.v.v.v.v.f.h.i.i.i.i.i.i.i.i.#..........................................",
".......................................................j.i.i.c.v.v.v.v.v.#.u.y.y.f.o.v.v.v.v.v.v.v.v.v.v.v.q.i.i.i.i.i.i.i.i.c..........................................",
".....................................................n.i.i.i.t.v.v.v.v.v.v.o.r.o.v.v.v.v.v.v.v.v.v.v.v.v.v.d.i.i.i.i.i.i.i.i.i.b........................................",
"...................................................d.i.i.i.g.v.v.v.v.v.v.v.v.v.v.v.v.v.v.v.v.v.v.v.v.v.v.v.#.h.i.i.i.i.i.i.i.i.i.x......................................",
".................................................u.i.i.i.i.t.v.v.v.v.v.v.v.v.v.v.v.v.v.v.v.v.v.v.v.v.v.v.v.v.c.i.i.i.i.i.i.i.i.i.i.e....................................",
"...............................................#.m.i.i.i.i.e.v.v.v.v.v.v.v.v.v.v.v.v.v.v.v.v.v.v.v.v.v.o.R.v.g.i.i.i.i.i.i.i.i.i.i.i.e..................................",
"...............................................s.i.i.i.i.k.3.#.v.v.v.v.v.o.r.w.r.o.v.v.v.v.v.o.r.r.w.#.5.f.r.d.i.i.i.i.i.i.i.i.i.i.i.m.r................................",
".............................................x.i.i.i.i.i.g.3.e.#.R.v.v.v.v.w.#.o.v.v.v.v.v.o.w.f.u.e.e.e.y.u.r.q.i.i.h.i.i.i.i.i.i.i.i.g................................",
".............................................k.i.i.i.i.i.q.e.#.o.v.v.v.v.v.o.o.v.v.v.v.v.v.v.v.v.r.w.f.u.y.e.f.v.s.i.k.j.p.i.i.i.i.i.i.i.e..............................",
"...........................................x.i.i.i.i.i.m.t.o.v.v.v.v.v.v.v.v.v.v.v.v.v.v.v.v.v.v.v.v.v.v.r.f.e.r.e.i.i.i.k.k.i.i.i.i.i.i.q..............................",
"...........................................b.i.i.k.i.i.l.o.v.v.v.v.v.v.v.v.v.v.v.v.v.v.v.v.v.v.v.v.v.v.v.v.v.#.u.v.n.i.i.i.k.k.i.i.i.i.i.i.#............................",
"...........................................j.i.k.m.i.m.r.v.v.v.v.v.v.v.v.v.v.v.v.v.v.v.v.v.v.v.v.v.v.v.v.v.v.v.#.#.e.i.i.i.i.k.m.i.i.i.i.i.d............................",
".........................................u.i.i.s.i.i.d.v.v.v.v.v.v.v.v.v.v.v.v.v.v.v.v.v.v.v.v.v.v.v.v.v.v.v.v.v.#.v.g.i.k.k.m.k.i.i.i.i.i.j............................",
".........................................d.i.k.m.i.k.r.v.v.v.v.v.v.v.v.v.v.v.v.v.v.v.v.v.v.v.v.v.v.v.v.v.v.v.v.v.v.v.l.i.k.g.m.k.k.i.i.i.i.i.u..........................",
".........................................j.i.k.i.i.d.v.v.v.v.v.v.v.v.v.v.v.v.v.v.v.v.v.v.v.v.v.v.v.v.v.v.v.v.v.v.v.v.#.m.m.k.i.i.j.h.i.i.i.i.b..........................",
".......................................e.i.k.k.i.s.o.v.v.v.v.v.v.v.v.v.v.R.v.v.v.v.v.v.v.v.v.v.v.v.v.v.v.v.v.v.v.v.v.v.g.i.i.i.i.s.k.i.i.i.i.m.o........................",
".......................................b.i.s.h.i.a.v.v.v.v.v.v.v.v.v.v.v.r.v.v.v.v.v.v.v.v.v.v.v.v.v.v.v.v.v.v.v.v.v.v.q.i.i.i.i.m.k.i.i.i.i.i.u........................",
".....................................r.m.h.k.i.i.f.v.v.v.v.v.v.v.v.v.v.o.o.v.v.v.v.v.v.v.v.v.v.v.v.v.v.v.v.v.v.v.v.v.v.b.i.i.i.i.h.k.i.i.i.i.i.a........................",
".....................................a.i.k.m.i.k.R.v.v.v.v.v.v.v.v.v.v.R.r.v.v.v.v.v.v.v.v.v.v.v.v.v.v.v.v.v.v.v.v.v.v.d.i.i.i.i.h.k.i.i.i.i.i.n........................",
"...................................#.m.i.k.h.i.n.v.v.v.v.v.v.v.v.v.v.v.r.r.v.v.v.v.v.v.v.v.v.v.v.v.v.v.v.v.v.v.v.v.v.v.t.i.i.i.i.m.m.i.i.i.i.i.k........................",
"...................................g.i.i.k.i.i.e.v.v.v.v.v.v.v.v.v.v.v.R.r.v.v.v.v.v.v.v.v.v.v.v.v.v.v.v.v.v.v.v.v.v.v.e.i.i.i.i.k.m.i.i.i.i.i.h.o......................",
".................................3.i.i.i.j.i.i.f.v.v.v.v.v.v.v.v.v.v.v.r.r.v.v.v.v.v.v.v.v.v.v.v.v.v.v.v.v.v.v.v.v.v.v.f.i.i.i.i.j.m.i.i.i.i.i.i.#......................",
"...............................o.j.i.i.i.c.h.i.#.v.v.v.v.v.v.v.v.v.v.v.r.r.v.v.v.v.v.v.v.v.v.v.v.v.v.v.v.v.v.v.v.v.v.v.f.i.i.i.i.k.i.i.i.i.i.i.i.#......................",
"...............................#.i.i.i.m.n.k.i.#.v.v.v.v.v.v.v.v.v.v.v.w.o.v.v.v.v.v.v.v.v.v.v.v.v.v.v.v.v.v.v.v.v.v.v.#.i.i.i.i.m.i.i.i.i.i.i.i.#......................",
"...............................x.i.i.i.h.n.k.m.r.v.v.v.v.v.v.v.v.v.v.v.r.R.v.v.v.v.v.v.v.v.v.v.v.v.v.v.v.v.v.v.v.v.v.v.5.i.i.i.k.m.i.i.i.i.i.i.i.#......................",
"...............................d.i.i.i.i.h.m.k.r.v.v.v.v.v.v.v.v.v.v.v.r.o.v.v.v.v.v.v.v.v.v.v.v.v.v.v.v.v.v.v.v.v.v.v.e.i.i.h.k.i.h.i.i.i.i.i.i.#......................",
"...............................t.i.i.W.p.i.h.j.r.v.v.v.v.v.v.v.v.v.v.v.r.r.v.v.v.v.v.v.v.v.v.v.v.v.v.v.v.v.v.v.v.v.v.v.d.i.m.m.h.i.h.m.k.k.i.i.k........................",
".................................6.Y.G.P.Z.i.m.f.v.v.v.v.v.v.v.v.v.v.v.r.o.v.v.v.v.v.v.v.v.v.v.v.v.v.v.v.v.v.v.v.v.v.v.z.i.h.i.i.i.i.i.i.s.q.i.q........................",
"...............................w.O.F.E.E.E.Z.i.k.f.v.v.v.v.v.v.v.v.v.v.w.o.v.v.v.v.v.v.v.v.v.v.v.v.v.v.v.v.v.v.R.J.U.U.2.h.i.i.i.i.i.i.i.m.c.m.l........................",
"...............................x.N.G.F.0.E.M.Z.i.k.u.v.v.v.v.v.v.v.v.v.r.o.v.v.v.v.v.v.v.v.v.v.v.v.v.v.v.v.v.v.J.7.M.M.S.A.i.i.i.i.i.i.i.k.m.B.J........................",
".............................8.L.P.0.E.E.E.F.E.B.i.h.d.v.v.v.v.v.v.v.v.r.r.v.v.v.v.v.v.v.v.v.v.v.v.v.v.v.v.v.v.U.P.E.S.H.h.i.i.i.i.i.i.i.i.i.D.M.J......................",
".................R.8.J.J.J.J.L.N.O.F.E.F.F.E.E.E.A.i.i.n.v.v.v.v.v.v.v.v.v.v.v.v.v.v.v.v.v.v.v.v.v.v.v.v.v.v.v.J.P.E.0.I.p.i.i.i.i.i.i.i.i.Z.E.M.O.r....................",
"...............8.D.H.1.O.L.1.N.0.G.E.F.E.E.F.E.S.2.h.i.i.s.#.v.v.v.v.v.v.v.v.v.v.v.v.v.v.v.v.v.v.v.v.v.v.v.v.w.U.7.F.P.L.A.i.i.i.i.i.i.i.B.N.S.E.O.r....................",
".............o.D.P.P.0.P.P.G.G.F.E.F.E.E.F.E.F.E.S.B.i.i.i.s.f.v.v.v.v.v.v.v.v.v.v.v.v.v.v.v.v.v.v.v.v.v.v.#.y.U.P.G.P.L.X.W.i.i.i.i.i.B.L.P.P.E.O.R....................",
".............#.D.N.0.E.F.0.E.F.E.F.E.E.F.E.F.E.E.S.1.p.i.i.i.i.x.v.v.v.v.v.v.v.v.v.v.v.v.v.v.v.v.v.v.v.v.v.f.u.U.N.G.P.1.Y.2.Z.B.B.Z.2.L.N.G.E.E.0.8....................",
".............8.L.7.E.F.E.E.F.E.E.G.F.E.E.F.E.F.G.E.S.Z.i.i.i.i.i.d.v.v.v.v.v.v.v.v.v.v.v.v.v.v.v.v.v.v.v.o.u.y.U.1.G.P.1.L.L.L.L.L.L.L.N.G.F.F.E.E.U.o..................",
".............o.D.N.0.E.F.E.G.F.E.F.E.F.E.E.F.E.F.E.M.0.A.i.i.i.i.i.x.v.v.v.v.v.v.v.v.v.v.v.v.v.v.v.v.v.v.v.f.u.x.H.P.G.P.N.H.H.L.1.1.N.G.F.E.E.F.E.E.U..................",
".............o.D.N.P.F.E.E.F.E.F.E.F.E.E.F.E.E.E.F.E.S.L.p.i.i.i.i.s.o.v.v.v.v.v.v.v.v.v.v.v.v.v.v.v.v.v.v.#.u.x.Y.P.0.G.P.N.N.N.N.N.G.0.E.E.F.E.F.E.7.U................",
"...............D.P.0.E.E.F.E.E.E.F.E.E.F.E.F.E.F.E.G.E.S.B.i.i.i.i.h.r.v.v.v.v.v.v.v.v.v.v.v.v.v.v.v.v.v.v.#.e.2.L.P.G.F.E.G.P.P.P.G.G.G.E.F.E.E.E.F.E.E.U.R............",
"...............U.1.7.F.E.F.E.F.E.E.F.E.E.F.E.F.E.0.E.F.M.P.W.i.i.i.b.v.v.v.v.v.v.v.v.v.v.v.v.v.v.v.v.v.v.v.#.s.B.1.N.G.E.0.E.F.E.0.G.F.F.E.F.E.F.E.E.F.E.E.V.8..........",
"...............U.1.O.E.F.G.F.E.0.E.E.0.E.E.0.E.E.E.F.E.0.S.X.m.s.x.v.v.v.v.v.v.v.v.v.v.v.v.v.v.v.v.v.v.v.w.s.i.Z.1.P.G.F.E.F.E.F.E.F.E.E.F.E.F.E.F.E.E.F.E.E.0.J........",
"...............U.1.G.E.E.F.E.E.E.F.E.F.E.F.E.F.E.F.E.E.E.S.P.D.R.v.v.v.v.v.v.v.v.v.v.v.v.v.v.v.v.v.v.v.3.k.i.h.Z.L.P.0.E.F.E.E.E.F.E.E.0.E.E.G.F.E.G.F.E.E.F.G.J........",
".............o.D.1.0.E.F.E.F.E.0.E.F.E.F.E.E.E.F.E.E.F.E.G.M.Y.J.v.v.v.v.v.v.v.v.v.v.v.v.v.v.v.v.v.v.a.i.i.i.p.Z.L.P.G.E.E.0.E.F.E.E.F.E.F.E.F.E.E.F.E.E.F.G.N.8........",
".............8.Y.1.G.F.E.E.E.F.E.E.E.0.E.F.G.F.E.0.E.0.E.F.M.G.2.8.v.v.v.v.v.v.v.v.v.v.v.v.v.v.v.t.4.i.i.i.i.p.K.L.G.0.E.F.E.F.E.F.E.E.F.E.F.E.F.E.F.E.F.0.1.x..........",
".............x.L.G.F.E.0.E.F.G.F.E.F.E.E.E.F.E.E.E.F.E.F.E.P.P.I.C.e.v.v.v.v.v.v.v.v.v.v.v.v.f.g.i.i.i.i.i.i.A.Z.L.7.0.E.E.F.E.E.E.F.E.E.F.E.E.E.F.E.G.P.O.J............",
"...........R.D.1.P.0.E.E.F.E.E.E.F.E.F.E.F.E.F.E.F.E.F.E.E.0.N.L.Z.p.c.e.R.v.v.v.v.o.R.u.a.j.h.i.i.i.i.i.i.i.A.Z.L.P.0.E.F.E.F.E.F.E.F.E.G.F.F.E.G.N.H.U.w..............",
"...........5.Y.L.N.G.0.0.0.F.F.0.E.E.G.F.E.G.E.F.G.F.E.E.F.G.N.L.K.A.i.i.i.h.m.m.i.h.i.i.i.i.i.i.i.i.i.i.i.i.Q.X.L.P.E.F.E.E.E.F.E.E.E.0.0.0.P.N.D.J.w..................",
"...........5.I.L.L.1.N.P.P.O.P.G.0.0.F.E.E.F.E.E.F.E.F.E.E.P.N.L.K.B.i.i.i.i.i.i.i.i.i.i.i.i.i.i.i.i.i.i.i.i.Q.K.L.N.G.E.F.E.F.E.0.F.0.P.N.N.L.x.5......................",
".............t.D.I.2.Y.L.L.H.H.1.N.P.P.P.0.F.F.E.E.0.E.F.F.N.L.2.Z.B.h.i.i.i.i.i.i.i.i.i.i.i.i.i.i.i.i.i.i.i.Q.K.I.1.O.0.E.F.G.E.G.G.O.1.H.D.J..........................",
".................w.8.x.2.X.I.2.I.I.L.L.L.1.N.P.0.F.F.E.0.P.1.2.K.Z.B.h.i.i.i.i.i.i.i.i.i.i.i.i.i.i.i.i.i.i.i.A.K.2.L.N.P.0.0.0.0.P.1.H.Y.D.#............................",
".d.d.d.d.d.l.a.a.b.b.n.g.g.C.C.2.K.K.X.2.2.Y.L.1.1.P.N.N.L.Y.X.Z.B.A.i.m.m.m.j.c.9.c.c.9.c.c.9.c.c.c.s.m.m.i.A.B.X.2.L.1.N.N.N.1.L.Y.I.C.c.z.q.n.b.a.a.l.d.d.d.d.d.d.d.d",
".a.a.l.a.a.a.a.b.b.b.n.q.q.g.g.g.9.C.C.Z.K.K.2.2.I.Y.I.L.I.K.Z.B.Q.p.k.c.c.g.g.g.g.g.g.g.g.g.g.g.g.g.g.g.g.4.9.B.K.I.2.Y.L.L.L.Y.2.K.C.j.c.g.q.b.b.b.a.a.l.a.a.l.a.l.a.a",
".l.a.a.l.a.l.a.a.a.b.b.b.b.b.q.q.z.g.g.g.9.9.B.Z.Z.K.Z.K.Z.Z.B.Q.j.j.c.g.g.q.q.n.n.n.n.n.n.n.n.n.n.n.n.n.q.q.g.Q.B.K.X.X.2.X.X.K.K.C.9.4.g.q.b.b.a.a.a.l.a.a.l.a.a.a.l.a",
".a.a.l.a.l.a.a.a.a.a.a.a.b.b.b.b.b.n.q.q.g.g.c.9.C.B.B.B.B.B.Q.9.9.g.g.q.n.b.b.b.b.b.b.b.b.b.b.b.b.b.b.b.b.b.n.g.9.Q.B.K.K.K.Z.C.9.9.c.g.n.b.b.a.a.a.l.a.a.l.a.a.l.a.a.l",
".a.l.a.l.a.a.l.l.a.l.a.a.a.a.a.a.b.b.b.b.b.n.q.q.g.c.9.Q.Q.9.j.c.g.q.n.b.b.a.a.a.a.a.a.a.a.a.a.a.a.a.a.b.a.b.b.n.q.g.9.Q.Q.9.c.j.4.g.q.n.b.b.a.a.a.l.a.a.l.a.a.l.a.l.a.l",
".a.l.a.a.l.a.a.a.l.a.a.l.a.a.a.a.a.a.a#..b.b.b.n.n.q.g.g.g.g.g.q.q.n.b.b.a.a.a.a.a.a.a.a.a.a.a.a.a.a.a.a.a.a.a.b.b.q.q.g.g.g.g.g.q.q.n.b.b.a.l.a.l.a.l.a.l.a.l.a.l.a.a.a",
".l.a.l.a.a.l.l.a.a.l.a.l.a.l.a.l.a.a.a.a.a.a.a.b.b.b.b.n.n.n.n.b.b.b.a.a.a.l.a.l.a.l.l.a.l.l.a.l.l.a.l.a.l.a.a.a.b.b.b.n.q.q.n.n.n.b.b.a.a.a.a.l.a.l.a.l.a.a.l.a.a.l.a.l",
".a.a.l.a.l.a.a.a.l.a.l.a.l.a.l.a.l.a.l.l.a.a.a.a.a.b.b.b.b.b.b.b.a.a.a.l.a.a.l.a.l.a.a.l.a.a.l.a.a.l.a.l.a.l.a.a.a.b.b.b.b.b.b.b.b.b.a.a.a.a.l.a.a.a.l.a.a.l.a.a.l.a.l.a",
".d.d.d.d.d.d.x.d.d.d.d.d.d.d.d.d.d.d.d.d.d.d.d.d.d.d.d.d.d.d.d.d.d.d.d.d.d.d.d.d.d.d.d.d.d.d.d.d.d.d.d.d.d.d.d.d.d.d.d.d.d.d.d.d.d.d.d.d.d.d.d.d.x.d.d.d.d.d.d.d.d.d.d.d"
};
