/* XPM */
static char *tux[] = {
/* width height num_colors chars_per_pixel */
"    84   100      145            2",
/* colors */
".. c #000400",
".# c #080400",
".a c #181800",
".b c #181818",
".c c #201800",
".d c #202420",
".e c #202428",
".f c #282400",
".g c #282420",
".h c #282c28",
".i c #382400",
".j c #382c28",
".k c #383820",
".l c #383838",
".m c #383840",
".n c #402c00",
".o c #402c08",
".p c #403828",
".q c #404440",
".r c #404448",
".s c #482c00",
".t c #482c08",
".u c #483820",
".v c #484428",
".w c #484c48",
".x c #484c58",
".y c #583800",
".z c #584418",
".A c #585858",
".B c #604400",
".C c #604408",
".D c #604c18",
".E c #606460",
".F c #684c00",
".G c #684c20",
".H c #686c68",
".I c #686c78",
".J c #784c00",
".K c #784c18",
".L c #786c40",
".M c #787878",
".N c #805800",
".O c #806400",
".P c #806c48",
".Q c #808480",
".R c #885800",
".S c #886408",
".T c #886c20",
".U c #888c88",
".V c #889898",
".W c #986400",
".X c #986c00",
".Y c #986c08",
".Z c #987840",
".0 c #989898",
".1 c #a06c00",
".2 c #a07828",
".3 c #a09888",
".4 c #a0a4a0",
".5 c #a0a4a8",
".6 c #a87800",
".7 c #a88c00",
".8 c #a8aca0",
".9 c #a8aca8",
"#. c #b87800",
"## c #b87808",
"#a c #b88400",
"#b c #b88c20",
"#c c #b88c40",
"#d c #b88c48",
"#e c #b89808",
"#f c #b89848",
"#g c #b89868",
"#h c #b8a468",
"#i c #b8a488",
"#j c #b8b898",
"#k c #b8b8a8",
"#l c #b8b8b8",
"#m c #b8c4c0",
"#n c #c08400",
"#o c #c08c18",
"#p c #c0ac78",
"#q c #c0ac80",
"#r c #c0b8b8",
"#s c #c0c4c0",
"#t c #c88c00",
"#u c #c89800",
"#v c #c89838",
"#w c #c89848",
"#x c #c8a428",
"#y c #c8a448",
"#z c #c8ac68",
"#A c #c8b888",
"#B c #c8c4b8",
"#C c #c8ccc8",
"#D c #d88c00",
"#E c #d89800",
"#F c #d89808",
"#G c #d8a400",
"#H c #d8ac20",
"#I c #d8ac40",
"#J c #d8ac48",
"#K c #d8b808",
"#L c #d8b860",
"#M c #d8b880",
"#N c #d8c480",
"#O c #d8c4a8",
"#P c #d8c4b8",
"#Q c #d8cc80",
"#R c #d8d8c0",
"#S c #d8d8c8",
"#T c #d8d8d8",
"#U c #d8e4e0",
"#V c #e0ac00",
"#W c #e0ac08",
"#X c #e0b800",
"#Y c #e0b820",
"#Z c #e0b848",
"#0 c #e0b860",
"#1 c #e0c400",
"#2 c #e0d8a8",
"#3 c #e0d8d8",
"#4 c #e0e4d8",
"#5 c #e0e4e0",
"#6 c #e0ece8",
"#7 c #e8ac00",
"#8 c #e8b808",
"#9 c #e8c440",
"a. c #e8c460",
"a# c #e8cc08",
"aa c #e8d808",
"ab c #e8d888",
"ac c #e8e4c8",
"ad c #e8ece0",
"ae c #e8ece8",
"af c #f8b800",
"ag c #f8b808",
"ah c #f8cc18",
"ai c #f8d800",
"aj c #f8d808",
"ak c #f8d820",
"al c #f8d828",
"am c #f8d848",
"an c #f8d878",
"ao c #f8f8f8",
/* pixels */
"aoaoaoaoaoaoaoaoaoaoaoaoaoaoaoaoaoaoaoaoaoaoaoaoaoaoaoaoaoaoaoaoaoaoaoaoaoaoaoaoaoaoaoaoaoaoaoaoaoaoaoaoaoaoaoaoaoaoaoaoaoaoaoaoaoaoaoaoaoaoaoaoaoaoaoaoaoaoaoaoaoaoaoao",
"aoaoaoaoaoaoaoaoaoaoaoaoaoaoaoaoaoaoaoaoaoaoaoaoaoaoaoaoaoaoaoaoaoaoaoaoaoaoaoaoaoaoaoaoaoaoaoaoaoaoaoaoaoaoaoaoaoaoaoaoaoaoaoaoaoaoaoaoaoaoaoaoaoaoaoaoaoaoaoaoaoaoaoao",
"aoaoaoaoaoaoaoaoaoaoaoaoaoaoaoaoaoaoaoaoaoaoaoaoaoaoaoaoaoaoaoaoaoaoaoaoaoaoaoaoaoaoaoaoaoaoaoaoaoaoaoaoaoaoaoaoaoaoaoaoaoaoaoaoaoaoaoaoaoaoaoaoaoaoaoaoaoaoaoaoaoaoaoao",
"aoaoaoaoaoaoaoaoaoaoaoaoaoaoaoaoaoaoaoaoaoaoaoaoaoaoaoaoaoaoaoaoaoaoaoaoaoaoaoaoaoaoaoaoaoaoaoaoaoaoaoaoaoaoaoaoaoaoaoaoaoaoaoaoaoaoaoaoaoaoaoaoaoaoaoaoaoaoaoaoaoaoaoao",
"aoaoaoaoaoaoaoaoaoaoaoaoaoaoaoaoaoaoaoaoaoaoaoaoaoaoaoaoaoaoaoaoaoaoaoaoaoaoaoaoaoaoaoaoaoaoaoaoaoaoaoaoaoaoaoaoaoaoaoaoaoaoaoaoaoaoaoaoaoaoaoaoaoaoaoaoaoaoaoaoaoaoaoao",
"aoaoaoaoaoaoaoaoaoaoaoaoaoaoaoaoaoaoaoaoaoaoaoaoaoaoaoaoaoaoaoaoaoaoaoaoaoaoaoaoaoaoaoaoaoaoaoaoaoaoaoaoaoaoaoaoaoaoaoaoaoaoaoaoaoaoaoaoaoaoaoaoaoaoaoaoaoaoaoaoaoaoaoao",
"aoaoaoaoaoaoaoaoaoaoaoaoaoaoaoaoaoaoaoaoaoaoaoaoaoaoaoaoaoaoaoaoaoaoaoaoaoaoaoaoaoaoaoaoaoaoaoaoaoaoaoaoaoaoaoaoaoaoaoaoaoaoaoaoaoaoaoaoaoaoaoaoaoaoaoaoaoaoaoaoaoaoaoao",
"aoaoaoaoaoaoaoaoaoaoaoaoaoaoaoaoaoaoaoaoaoaoaoaoaoaoaoaoaoaoaoaoaoaoaoaoao#T.M.H.H.q.q.H.H.U#laoaoaoaoaoaoaoaoaoaoaoaoaoaoaoaoaoaoaoaoaoaoaoaoaoaoaoaoaoaoaoaoaoaoaoaoao",
"aoaoaoaoaoaoaoaoaoaoaoaoaoaoaoaoaoaoaoaoaoaoaoaoaoaoaoaoaoaoaoaoaoaoao#C.w.#...................l#laoaoaoaoaoaoaoaoaoaoaoaoaoaoaoaoaoaoaoaoaoaoaoaoaoaoaoaoaoaoaoaoaoaoao",
"aoaoaoaoaoaoaoaoaoaoaoaoaoaoaoaoaoaoaoaoaoaoaoaoaoaoaoaoaoaoaoaoaoao.U.............................d#laoaoaoaoaoaoaoaoaoaoaoaoaoaoaoaoaoaoaoaoaoaoaoaoaoaoaoaoaoaoaoaoao",
"aoaoaoaoaoaoaoaoaoaoaoaoaoaoaoaoaoaoaoaoaoaoaoaoaoaoaoaoaoaoaoaoao.H...........................#.......Qaoaoaoaoaoaoaoaoaoaoaoaoaoaoaoaoaoaoaoaoaoaoaoaoaoaoaoaoaoaoaoao",
"aoaoaoaoaoaoaoaoaoaoaoaoaoaoaoaoaoaoaoaoaoaoaoaoaoaoaoaoaoaoaoao#l...........................b.q.q.b.....Eaoaoaoaoaoaoaoaoaoaoaoaoaoaoaoaoaoaoaoaoaoaoaoaoaoaoaoaoaoaoao",
"aoaoaoaoaoaoaoaoaoaoaoaoaoaoaoaoaoaoaoaoaoaoaoaoaoaoaoaoaoaoaoae.b...........................d.E.H.w.a.....Uaoaoaoaoaoaoaoaoaoaoaoaoaoaoaoaoaoaoaoaoaoaoaoaoaoaoaoaoaoao",
"aoaoaoaoaoaoaoaoaoaoaoaoaoaoaoaoaoaoaoaoaoaoaoaoaoaoaoaoaoaoao.M.............................d.H.H.q.d......#Taoaoaoaoaoaoaoaoaoaoaoaoaoaoaoaoaoaoaoaoaoaoaoaoaoaoaoaoao",
"aoaoaoaoaoaoaoaoaoaoaoaoaoaoaoaoaoaoaoaoaoaoaoaoaoaoaoaoaoaoae.d...........................#.d.q.d.b.#.......waoaoaoaoaoaoaoaoaoaoaoaoaoaoaoaoaoaoaoaoaoaoaoaoaoaoaoaoao",
"aoaoaoaoaoaoaoaoaoaoaoaoaoaoaoaoaoaoaoaoaoaoaoaoaoaoaoaoaoao#l...............................#.#..............#Caoaoaoaoaoaoaoaoaoaoaoaoaoaoaoaoaoaoaoaoaoaoaoaoaoaoaoao",
"aoaoaoaoaoaoaoaoaoaoaoaoaoaoaoaoaoaoaoaoaoaoaoaoaoaoaoaoaoao.U.................................................Aaoaoaoaoaoaoaoaoaoaoaoaoaoaoaoaoaoaoaoaoaoaoaoaoaoaoaoao",
"aoaoaoaoaoaoaoaoaoaoaoaoaoaoaoaoaoaoaoaoaoaoaoaoaoaoaoaoaoao.H.................................................baeaoaoaoaoaoaoaoaoaoaoaoaoaoaoaoaoaoaoaoaoaoaoaoaoaoaoao",
"aoaoaoaoaoaoaoaoaoaoaoaoaoaoaoaoaoaoaoaoaoaoaoaoaoaoaoaoaoao.d.........#.#.....................b.b..............#5aoaoaoaoaoaoaoaoaoaoaoaoaoaoaoaoaoaoaoaoaoaoaoaoaoaoao",
"aoaoaoaoaoaoaoaoaoaoaoaoaoaoaoaoaoaoaoaoaoaoaoaoaoaoaoaoaoao.d...........d.b.......#.......b.d...d.h.............9aoaoaoaoaoaoaoaoaoaoaoaoaoaoaoaoaoaoaoaoaoaoaoaoaoaoao",
"aoaoaoaoaoaoaoaoaoaoaoaoaoaoaoaoaoaoaoaoaoaoaoaoaoaoaoaoaoao.d.....d.E.w...d...........d.H.U.9.U.b.d.#...........Haoaoaoaoaoaoaoaoaoaoaoaoaoaoaoaoaoaoaoaoaoaoaoaoaoaoao",
"aoaoaoaoaoaoaoaoaoaoaoaoaoaoaoaoaoaoaoaoaoaoaoaoaoaoaoaoaoao.d...b.Q#s#s.E...........d.U#l#s#T#T.Q...............Uaoaoaoaoaoaoaoaoaoaoaoaoaoaoaoaoaoaoaoaoaoaoaoaoaoaoao",
"aoaoaoaoaoaoaoaoaoaoaoaoaoaoaoaoaoaoaoaoaoaoaoaoaoaoaoaoaoao.d...w#Caeao#5.w.........Q#4aoae#5ao#C.q.............Haoaoaoaoaoaoaoaoaoaoaoaoaoaoaoaoaoaoaoaoaoaoaoaoaoaoao",
"aoaoaoaoaoaoaoaoaoaoaoaoaoaoaoaoaoaoaoaoaoaoaoaoaoaoaoaoaoao.d...0#5.M.8ao#l.......d#Tao#m.g.w#lao#r.............Aaoaoaoaoaoaoaoaoaoaoaoaoaoaoaoaoaoaoaoaoaoaoaoaoaoaoao",
"aoaoaoaoaoaoaoaoaoaoaoaoaoaoaoaoaoaoaoaoaoaoaoaoaoaoaoaoaoao.e..#T.w...h.Uao.g...b.l#5ao.d...w.l#lao.h...........Aaoaoaoaoaoaoaoaoaoaoaoaoaoaoaoaoaoaoaoaoaoaoaoaoaoaoao",
"aoaoaoaoaoaoaoaoaoaoaoaoaoaoaoaoaoaoaoaoaoaoaoaoaoaoaoaoaoao.q..#C.q...l.Mao.e...b.e#T#s.....#.#.0ao.h...........Eaoaoaoaoaoaoaoaoaoaoaoaoaoaoaoaoaoaoaoaoaoaoaoaoaoaoao",
"aoaoaoaoaoaoaoaoaoaoaoaoaoaoaoaoaoaoaoaoaoaoaoaoaoaoaoaoaoao.U..#s.w.....x.3.n.y.y.n.Q#C.........0ao.l...........Aaoaoaoaoaoaoaoaoaoaoaoaoaoaoaoaoaoaoaoaoaoaoaoaoaoaoao",
"aoaoaoaoaoaoaoaoaoaoaoaoaoaoaoaoaoaoaoaoaoaoaoaoaoaoaoaoaoao.U...9.0.....C#oafag#X#u.7#N.k.....d#Tao.d...........Eaoaoaoaoaoaoaoaoaoaoaoaoaoaoaoaoaoaoaoaoaoaoaoaoaoaoao",
"aoaoaoaoaoaoaoaoaoaoaoaoaoaoaoaoaoaoaoaoaoaoaoaoaoaoaoaoaoao.U...Hao.H.O#t#D#1#1#G#e#Kai#V.F.t#lao.V.............d#6aoaoaoaoaoaoaoaoaoaoaoaoaoaoaoaoaoaoaoaoaoaoaoaoaoao",
"aoaoaoaoaoaoaoaoaoaoaoaoaoaoaoaoaoaoaoaoaoaoaoaoaoaoaoaoaoao.U.....8#v#t#Xag#X#1aaakalamajajah#Y#x.o.............d#Taoaoaoaoaoaoaoaoaoaoaoaoaoaoaoaoaoaoaoaoaoaoaoaoaoao",
"aoaoaoaoaoaoaoaoaoaoaoaoaoaoaoaoaoaoaoaoaoaoaoaoaoaoaoaoaoao.U...c.X#n#G#V#X#X#1ahalamalajajajaiah#W.f...........b#Taoaoaoaoaoaoaoaoaoaoaoaoaoaoaoaoaoaoaoaoaoaoaoaoaoao",
"aoaoaoaoaoaoaoaoaoaoaoaoaoaoaoaoaoaoaoaoaoaoaoaoaoaoaoaoaoao#l...N#n#D#V#X#8#1a#akamalajajajaj#V#eag.n............#laoaoaoaoaoaoaoaoaoaoaoaoaoaoaoaoaoaoaoaoaoaoaoaoaoao",
"aoaoaoaoaoaoaoaoaoaoaoaoaoaoaoaoaoaoaoaoaoaoaoaoaoaoaoaoaoao#l.#.1#t#E#V#8#X#1a##9akajajaj#1.7.7#E#G.c.............Qaoaoaoaoaoaoaoaoaoaoaoaoaoaoaoaoaoaoaoaoaoaoaoaoaoao",
"aoaoaoaoaoaoaoaoaoaoaoaoaoaoaoaoaoaoaoaoaoaoaoaoaoaoaoaoaoao#l...F.7#G#Xafa#a#aaakajaia##V.7#t#E#E#t.a.....d.......##5aoaoaoaoaoaoaoaoaoaoaoaoaoaoaoaoaoaoaoaoaoaoaoaoao",
"aoaoaoaoaoaoaoaoaoaoaoaoaoaoaoaoaoaoaoaoaoaoaoaoaoaoaoaoaoao#l.....B.X#G#Xahakaaa##X.7.X#.#D#V#D#o.L.....#.H.E.d....#laoaoaoaoaoaoaoaoaoaoaoaoaoaoaoaoaoaoaoaoaoaoaoaoao",
"aoaoaoaoaoaoaoaoaoaoaoaoaoaoaoaoaoaoaoaoaoaoaoaoaoaoaoaoaoao#l.....U.T.O.X#e.7.1.1.6.7#t#D#t#b#q#l#s.h.....l.U.Q.b...waoaoaoaoaoaoaoaoaoaoaoaoaoaoaoaoaoaoaoaoaoaoaoaoao",
"aoaoaoaoaoaoaoaoaoaoaoaoaoaoaoaoaoaoaoaoaoaoaoaoaoaoaoaoaoao#l...#.5#k.Y.W#u#V#u#D#t#t#t#a#d#l#s#C#s.x.......H.U.l....#laoaoaoaoaoaoaoaoaoaoaoaoaoaoaoaoaoaoaoaoaoaoaoao",
"aoaoaoaoaoaoaoaoaoaoaoaoaoaoaoaoaoaoaoaoaoaoaoaoaoaoaoaoaoao.U...b.4#s#i.S.1#n#n#n#..1###p#l#l#C#5ae.U.......d.q.......daoaoaoaoaoaoaoaoaoaoaoaoaoaoaoaoaoaoaoaoaoaoaoao",
"aoaoaoaoaoaoaoaoaoaoaoaoaoaoaoaoaoaoaoaoaoaoaoaoaoaoaoaoao#T.......4#s#m#k.Z.T.S.Y.T#c#j#m#l#Taoaoaoao.r.................4aoaoaoaoaoaoaoaoaoaoaoaoaoaoaoaoaoaoaoaoaoaoao",
"aoaoaoaoaoaoaoaoaoaoaoaoaoaoaoaoaoaoaoaoaoaoaoaoaoaoaoaoao.H.....wae#T#l#m#m#l#i#j#l#m#l#l#Taoaoaoaoao.9.................b#5aoaoaoaoaoaoaoaoaoaoaoaoaoaoaoaoaoaoaoaoaoao",
"aoaoaoaoaoaoaoaoaoaoaoaoaoaoaoaoaoaoaoaoaoaoaoaoaoaoaoao.9.....d#Taoao#s#l#r#l#s#m#l#s#T#5aoaoaoaoaoaoao.H.................Haoaoaoaoaoaoaoaoaoaoaoaoaoaoaoaoaoaoaoaoaoao",
"aoaoaoaoaoaoaoaoaoaoaoaoaoaoaoaoaoaoaoaoaoaoaoaoaoaoao#T.#.....0aoaoao#5#l#l#l#l#l#s#Taoaoaoaoaoaoaoaoao#C.#................#Taoaoaoaoaoaoaoaoaoaoaoaoaoaoaoaoaoaoaoaoao",
"aoaoaoaoaoaoaoaoaoaoaoaoaoaoaoaoaoaoaoaoaoaoaoaoaoaoao.l.....qaoaoaoaoao#T#s#r#r#Caeaoaoaoaoaoaoaoaoaoaoao.A.................qaoaoaoaoaoaoaoaoaoaoaoaoaoaoaoaoaoaoaoaoao",
"aoaoaoaoaoaoaoaoaoaoaoaoaoaoaoaoaoaoaoaoaoaoaoaoaoao.E.......9aoaoaoaoaoaoae#5aeaoaoaoaoaoaoaoaoaoaoaoaoao.U...................Haoaoaoaoaoaoaoaoaoaoaoaoaoaoaoaoaoaoaoao",
"aoaoaoaoaoaoaoaoaoaoaoaoaoaoaoaoaoaoaoaoaoaoaoaoao.U.......waoaoaoaoaoaoaoaoaoaoaoaoaoaoaoaoaoaoaoaoaoaoao#T.#...................0aoaoaoaoaoaoaoaoaoaoaoaoaoaoaoaoaoaoao",
"aoaoaoaoaoaoaoaoaoaoaoaoaoaoaoaoaoaoaoaoaoaoaoao#s.........8aoaoaoaoaoaoaoaoaoaoaoaoaoaoaoaoaoaoaoaoaoaoaoao.q....................#laoaoaoaoaoaoaoaoaoaoaoaoaoaoaoaoaoao",
"aoaoaoaoaoaoaoaoaoaoaoaoaoaoaoaoaoaoaoaoaoaoao#T.b........#laoaoaoaoaoaoaoaoaoaoaoaoaoaoaoaoaoaoaoaoaoaeadao.w......................#laoaoaoaoaoaoaoaoaoaoaoaoaoaoaoaoao",
"aoaoaoaoaoaoaoaoaoaoaoaoaoaoaoaoaoaoaoaoaoaoao.h.........d.4#Taoaoaoaoaoae#5#4#5aeaoaoaoaoaoae#5#5#4#T#S#C#5.U.......................b#5aoaoaoaoaoaoaoaoaoaoaoaoaoaoaoao",
"aoaoaoaoaoaoaoaoaoaoaoaoaoaoaoaoaoaoaoaoaoao.0...........w.4#l#Tadaoaoaoao#4#Taeaoaoaoaoaoae#4#C#s#l#l#l#m#s#5.A.....#.................waoaoaoaoaoaoaoaoaoaoaoaoaoaoaoao",
"aoaoaoaoaoaoaoaoaoaoaoaoaoaoaoaoaoaoaoaoaoao.d...........A#l#Taeaoaoaoaoaoaeaeaoaoaoaoaoaoaoaoao#5#4#C#s#r#l#Cao.h...d.l.a..............#laoaoaoaoaoaoaoaoaoaoaoaoaoaoao",
"aoaoaoaoaoaoaoaoaoaoaoaoaoaoaoaoaoaoaoaoao.0...........b.9aeaoaoaoaoaoaoaoaoaoaoaoaoaoaoaoaoaoaoaoaoaoao#5#C#l#5#l.......d.d.............Aaoaoaoaoaoaoaoaoaoaoaoaoaoaoao",
"aoaoaoaoaoaoaoaoaoaoaoaoaoaoaoaoaoaoaoaoao.H.....d.....Qaeaoaoaoaoaoaoaoaoaoaoaoaoaoaoaoaoaoaoaoaoaoaoaoaoao#T#sao.E.......d.d............#Taoaoaoaoaoaoaoaoaoaoaoaoaoao",
"aoaoaoaoaoaoaoaoaoaoaoaoaoaoaoaoaoaoaoaoao.l...d.b...b#5aoaoaoaoaoaoaoaoaoaoaoaoaoaoaoaoaoaoaoaoaoaoaoaoaoaoao#T#T#l.........d.b...........Uaoaoaoaoaoaoaoaoaoaoaoaoaoao",
"aoaoaoaoaoaoaoaoaoaoaoaoaoaoaoaoaoaoaoao#s.....h.....Uaoaoaoaoaoaoaoaoaoaoaoaoaoaoaoaoaoaoaoaoaoaoaoaoaoaoaoaoao#Tao.w...d.d.b.d...........laoaoaoaoaoaoaoaoaoaoaoaoaoao",
"aoaoaoaoaoaoaoaoaoaoaoaoaoaoaoaoaoaoaoao.U...d.b...d#5aoaoaoaoaoaoaoaoaoaoaoaoaoaoaoaoaoaoaoaoaoaoaoaoaoaoaoaoaoaoao.Q...d.w.b.d.d..........#saoaoaoaoaoaoaoaoaoaoaoaoao",
"aoaoaoaoaoaoaoaoaoaoaoaoaoaoaoaoaoaoaoao.l...d.....Uaoaoaoaoaoaoaoaoaoaoaoaoaoaoaoaoaoaoaoaoaoaoaoaoaoaoaoaoaoaoaoao#T.b.b.d.....l.#.........Haoaoaoaoaoaoaoaoaoaoaoaoao",
"aoaoaoaoaoaoaoaoaoaoaoaoaoaoaoaoaoaoao#l...d.d...haeaoaoaoaoaoaoaoaoaoaoadaoaoaoaoaoaoaoaoaoaoaoaoaoaoaoaoaoaoaoaoaoao.w.........h.d.........baeaoaoaoaoaoaoaoaoaoaoaoao",
"aoaoaoaoaoaoaoaoaoaoaoaoaoaoaoaoaoaoao.H...h.#...Maoaoaoaoaoaoaoaoaoaoao#5aoaoaoaoaoaoaoaoaoaoaoaoaoaoaoaoaoaoaoaoaoao.A.........b.d..........#saoaoaoaoaoaoaoaoaoaoaoao",
"aoaoaoaoaoaoaoaoaoaoaoaoaoaoaoaoaoao#5.b.#.d....#Caoaoaoaoaoaoaoaoaoaoaeaeaoaoaoaoaoaoaoaoaoaoaoaoaoaoaoaoaoaoaoaoaoao.H.........#.d...........Maoaoaoaoaoaoaoaoaoaoaoao",
"aoaoaoaoaoaoaoaoaoaoaoaoaoaoaoaoaoao.M...d.b...dadaoaoaoaoaoaoaoaoaoaoad#5aoaoaoaoaoaoaoaoaoaoaoaoaoaoaoaoaoaoaoaoaoao.U.........#.d...........Eaoaoaoaoaoaoaoaoaoaoaoao",
"aoaoaoaoaoaoaoaoaoaoaoaoaoaoaoaoao#T.b...d.#...Eaoaoaoaoaoaoaoaoaoaoao#5#5aoaoaoaoaoaoaoaoaoaoaoaoaoaoaoaoaoaoaoaoaoao.9.........b.b...........daoaoaoaoaoaoaoaoaoaoaoao",
"aoaoaoaoaoaoaoaoaoaoaoaoaoaoaoaoao.w.....d....#laoaoaoaoaoaoaoaoaoaoaoad#5aoaoaoaoaoaoaoaoaoaoaoaoaoaoaoaoaoaoaoaoaoao#l.........d.b...........#aeaoaoaoaoaoaoaoaoaoaoao",
"aoaoaoaoaoaoaoaoaoaoaoaoaoaoaoao.4.......l....#Caoaoaoaoaoaoaoaoaoaoao#5#5aoaoaoaoaoaoaoaoaoaoaoaoaoaoaoaoaoaoaoaoaoao#C.........j.b............#Taoaoaoaoaoaoaoaoaoaoao",
"aoaoaoaoaoaoaoaoaoaoaoaoaoaoaoae.l.......q.#..#Taoaoaoaoaoaoaoaoaoaoao#5#5aoaoaoaoaoaoaoaoaoaoaoaoaoaoaoaoaoaoaoaoaoao#C.........d..............#Taoaoaoaoaoaoaoaoaoaoao",
"aoaoaoaoaoaoaoaoaoaoaoaoaoaoao#T.......b.E.d..#Taoaoaoaoaoaoaoaoaoaoao#4aeaoaoaoaoaoaoaoaoaoaoaoaoaoaoaoaoaoaoaoaoaoao#T.........b..............#Taoaoaoaoaoaoaoaoaoaoao",
"aoaoaoaoaoaoaoaoaoaoaoaoaoaoao.0.......#.E.d.b#5aoaoaoaoaoaoaoaoaoaoao#5adaoaoaoaoaoaoaoaoaoaoaoaoaoaoaoaoaoaoaoaoaoao#S.......d.b..............#Taoaoaoaoaoaoaoaoaoaoao",
"aoaoaoaoaoaoaoaoaoaoaoaoaoaoao.U.........#.b.d#5aoaoaoaoaoaoaoaoaoaoao#5aeaoaoaoaoaoaoaoaoaoaoaoaoaoaoaoaoaoaoaoaoaoao#l.....#.d...#............#Taoaoaoaoaoaoaoaoaoaoao",
"aoaoaoaoaoaoaoaoaoaoaoaoaoaoao.9.....c.a...#.l#5aoaoaoaoaoaoaoaoaoaoao#5#5aoaoaoaoaoaoaoaoaoaoaoaoaoaoaoaoaoaoaoaoaoao.U...b.b.#...#.b.d.d.....daoaoaoaoaoaoaoaoaoaoaoao",
"aoaoaoaoaoaoaoaoaoaoaoaoaoaoaoao.P#a#X#V.J...b#Caoaoaoaoaoaoaoaoaoaoao#5aeaoaoaoaoaoaoaoaoaoaoaoaoaoaoaoaoaoaoaoaoaoao.x...#.............h.A...Aaoaoaoaoaoaoaoaoaoaoaoao",
"aoaoaoaoaoaoaoaoaoaoaoaoaoaoao#4#Fagafafaf.N...d#Caoaoaoaoaoaoaoaoaoao#4aeaoaoaoaoaoaoaoaoaoaoaoaoaoaoaoaoaoaoada.#9#9.T.#...............b.q.b.Qaoaoaoaoaoaoaoaoaoaoaoao",
"aoaoaoaoaoaoaoaoaoaoaoaoaoaoao#g#G#Xag#8afai.N...d#saoaoaoaoaoaoaoaoao#5aeaoaoaoaoaoaoaoaoaoaoaoaoaoaoaoaoaoaoa.#7aiaiaj.f...............d.b.y#qaoaoaoaoaoaoaoaoaoaoaoao",
"aoaoaoaoaoaoaoaoaoaoaoaoaoao#O#t#V#8afafafagaf.F...#.Uaoaoaoaoaoaoaoao#5#5aoaoaoaoaoaoaoaoaoaoaoaoaoaoaoaoaoao#Z#Vafaj#u.#..................#eai#Qaoaoaoaoaoaoaoaoaoaoao",
"aoaoaoaoaoaoaoaoad#2#M#M#N#z#t#G#Wagafagagafafaf.i.....Eaoaoaoaoaoaoaoaoaoaoaoaoaoaoaoaoaoaoaoaoaoaoaoaoaoaoao#0#Vaf#8.7.a.................Jafai#H#5aoaoaoaoaoaoaoaoaoao",
"aoaoaoaoaoaoao#P#o#D#E#F#t#E#G#8#Xafagafafagafaj.6.#.....h#Taoaoaoaoaoaoaoaoaoaoaoaoaoaoaoaoaoaoaoaoaoaoaoao#U#J#7ag#V#t.n...............y#Ga#af#H#5aoaoaoaoaoaoaoaoaoao",
"aoaoaoaoaoaoae#b#V#V#8#V#V#X#Xagafagafafagafagafaj.y.......g#Caoaoaoaoaoaoaoaoaoaoaoaoaoaoaoaoaoaoaoaoaoao#T#m#J#V#X#V#t.1.c...........B#t#V#Vaf#Hadaoaoaoaoaoaoaoaoaoao",
"aoaoaoaoaoao#T#b#G#8afag#8afagafagafafagafagafafaj#E.a.........0aoaoaoaoaoaoaoaoaoaoaoaoaoaoaoaoaoaoaoaoao#C#s#y#G#X#V#E#a.6.N.F.F.N.6#t#G#Xafaf#8#Raoaoaoaoaoaoaoaoaoao",
"aoaoaoaoaoao#R#t#7afagafafagafaf#Xagafafagafag#Xafaj.J...........Uaoaoaoaoaoaoaoaoaoaoaoaoaoaoaoaoaoaoaoae#s#m#y#E#X#V#E#t#t#t#t#t#t#t#G#Xagagafaf#Iaeaoaoaoaoaoaoaoaoao",
"aoaoaoaoaoaoae#b#G#8afagaf#Xagafagafagafafagafagafai#8.i...........0aoaoaoaoaoaoaoaoaoaoaoaoaoaoaoaoaoaoao#C#s#f#D#V#X#V#G#D#D#t#E#E#G#Xagafafagafaf#Laoaoaoaoaoaoaoaoao",
"aoaoaoaoaoaoae#b#G#Vagafafagafagafagafafagafafafagafaj#t.a.........gaeaoaoaoaoaoaoaoaoaoaoaoaoaoaoaoaoaoao#T#s#f#n#V#8#X#V#G#G#G#G#G#X#8afafagafagaf#7#Laoaoaoaoaoaoaoao",
"aoaoaoaoaoaoao#c#V#8afafagafafafagafafagafagafagaf#Xafaj.F.........##5aoaoaoaoaoaoaoaoaoaoaoaoaoaoaoaoaoao#T#l.T#t#V#Xagaf#X#V#V#V#X#X#Xafagafafafagafaf#Ladaoaoaoaoaoao",
"aoaoaoaoaoaoao#w#E#7agafagafagafafagafafagafagaf#8afagai#V.c.......Haoaoaoaoaoaoaoaoaoaoaoaoaoaoaoaoaoaoao#T.h.F#E#G#Xaf#8afagaf#8#Xagagafagafagafafagafaf#Y#Oaoaoaoaoao",
"aoaoaoaoaoaoao#w#E#Wafag#Xagaf#8afaf#8afaf#8afafafagaf#8aj.X.b.h.0aoaoaoaoaoaoaoaoaoaoaoaoaoaoaoaoaoaoao#3.h...J#E#V#Xagafagafagafagafafagafagafagafafagafaf#8abaoaoaoao",
"aoaoaoaoaoaoao#w#E#Xafafagafafafagafagafagafagafagafafafa##V#c#6aoaoaoaoaoaoaoaoaoaoaoaoaoaoaoaoaoaoao.4.d...#.N#t#V#8afagafafafagafaf#8afaf#Xagaf#Xagafafag#Xanaoaoaoao",
"aoaoaoaoaoaoae#b#E#8afagafagaf#8afagafagafafafagafafagaf#X#1#n#Aaoaoaoaoaoaoaoaoaoaoaoaoaoaoaoaoaoao.M.......a.N#t#V#Xafaf#8afagafafagafagafagafafagafafag#X#G#2aoaoaoao",
"aoaoaoaoaoao#R#a#E#Xagafafafagafafaf#8afag#Xagaf#8af#8afag#1#X.Y#Baoaoaoaoaoaoaoaoaoaoaoaoaoaoao#k.r.........a.R#t#X#8afagafagafagafafagafagafagafagafag#8#E#haoaoaoaoao",
"aoaoaoaoaoao#g#t#Xagaf#8afag#Xagafagafafafagafafafagafagaf#V#V#..z#laoaoaoaoaoaoaoaoaoaoaoao#C.w.............f.N#t#7#8afafagafafafagafafagafafafagaf#X#V#F#Aaoaoaoaoaoao",
"aoaoaoaoaoad#b#E#V#8afafagafafafagafagafagafagafagafagafaf#8#G#t.J.a.q#ladaoaoaoaoaead#s.M.j.#...............i.N#t#V#8afagafagafagafagaf#Xagagaf#X#G#D#J#3aoaoaoaoaoaoao",
"aoaoaoaoaoac#a#t#G#X#8#8#8agag#8afaf#Xagaf#Xafag#Xagafafag#X#G#t.W.i.......#.b.b...#.........................t.X#t#Vafagafafafagafafaf#8#8#8#V#G#o#p#3aoaoaoaoaoaoaoaoao",
"aoaoaoaoaoac#.#t#t#E#G#V#V#W#V#X#8#8agafafagafafagafagafaf#V#G#t.R.y.........................................s.W#t#G#Xafagafagaf#8ag#8#V#G#G#t#d#Saoaoaoaoaoaoaoaoaoaoao",
"aoaoaoaoaoao#k#b#..6#a#t#t#D#D#E#G#V#V#V#8agagafaf#8afagag#G#t.6.N.B.#.......................................t.R#.#E#W#8afag#Xaf#X#X#W#E#D#o#Aaoaoaoaoaoaoaoaoaoaoaoaoao",
"aoaoaoaoaoaoaoao#3#B#g.2.1#..6#.#.#t#t#t#E#G#V#8agagaf#8#V#E.6.W.J.y.#.......................................n.O.6#t#G#V#8#8#8#8#V#E#D#a#c#Taoaoaoaoaoaoaoaoaoaoaoaoaoao",
".U.U.U.U.U.Q.M.M.H.H.E.w.w.G.K.S.R.W.1.6.6#a#t#E#E#V#G#G#t#a.1.N.F.n...b.b.b.l.q.m.q.q.m.q.q.m.q.q.q.e.b.b...i.F.1.6#t#E#G#G#G#E#t#a#..D.q.x.A.E.H.M.M.Q.U.U.U.U.U.U.U.U",
".M.M.Q.M.M.M.M.H.H.H.E.A.A.w.w.w.v.z.C.N.R.W.6.6#.#a.7#t#..R.N.F.s.a.d.q.q.w.w.w.w.w.w.w.w.w.w.w.w.w.w.w.w.r.u.B.R#..6#a#t#t#t#a.6.W.D.l.q.w.A.H.H.H.M.M.Q.M.M.Q.M.Q.M.M",
".Q.M.M.Q.M.Q.M.M.M.H.H.H.H.H.A.A.x.w.w.w.v.v.F.J.N.R.N.R.N.J.B.t.j.l.q.w.w.A.A.E.E.E.E.E.E.E.E.E.E.E.E.E.A.A.w.t.F.R.1.1.6.1.1.W.R.z.m.r.w.A.H.H.M.M.M.Q.M.M.Q.M.M.M.Q.M",
".M.M.Q.M.Q.M.M.M.M.M.M.M.H.H.H.H.H.E.A.A.w.w.q.v.z.B.F.B.F.y.t.p.m.w.w.A.E.H.H.H.H.H.H.H.H.H.H.H.H.H.H.H.H.H.E.w.u.s.F.O.R.O.J.C.v.m.q.w.E.H.H.M.M.M.Q.M.M.Q.M.M.Q.M.M.Q",
".M.Q.M.Q.M.M.Q.Q.M.Q.M.M.M.M.M.M.H.H.H.H.H.E.A.A.w.q.v.o.o.p.l.q.w.A.E.H.H.M.M.M.M.M.M.M.M.M.M.M.M.M.M.H.M.H.H.E.A.w.u.o.t.u.q.l.r.w.A.E.H.H.M.M.M.Q.M.M.Q.M.M.Q.M.Q.M.Q",
".M.Q.M.M.Q.M.M.M.Q.M.M.Q.M.M.M.M.M.M.M.I.H.H.H.E.E.A.w.w.w.w.w.A.A.E.H.H.M.M.M.M.M.M.M.M.M.M.M.M.M.M.M.M.M.M.M.H.H.A.A.w.w.w.w.w.A.A.E.H.H.M.Q.M.Q.M.Q.M.Q.M.Q.M.Q.M.M.M",
".Q.M.Q.M.M.Q.Q.M.M.Q.M.Q.M.Q.M.Q.M.M.M.M.M.M.M.H.H.H.H.E.E.E.E.H.H.H.M.M.M.Q.M.Q.M.Q.Q.M.Q.Q.M.Q.Q.M.Q.M.Q.M.M.M.H.H.H.E.A.A.E.E.E.H.H.M.M.M.M.Q.M.Q.M.Q.M.M.Q.M.M.Q.M.Q",
".M.M.Q.M.Q.M.M.M.Q.M.Q.M.Q.M.Q.M.Q.M.Q.Q.M.M.M.M.M.H.H.H.H.H.H.H.M.M.M.Q.M.M.Q.M.Q.M.M.Q.M.M.Q.M.M.Q.M.Q.M.Q.M.M.M.H.H.H.H.H.H.H.H.H.M.M.M.M.Q.M.M.M.Q.M.M.Q.M.M.Q.M.Q.M",
".U.U.U.U.U.U.0.U.U.U.U.U.U.U.U.U.U.U.U.U.U.U.U.U.U.U.U.U.U.U.U.U.U.U.U.U.U.U.U.U.U.U.U.U.U.U.U.U.U.U.U.U.U.U.U.U.U.U.U.U.U.U.U.U.U.U.U.U.U.U.U.U.0.U.U.U.U.U.U.U.U.U.U.U"
};
